<mxfile modified="2024-05-15T18:47:09.631Z" host="app.diagrams.net" agent="Mozilla/5.0 (Windows NT 10.0; Win64; x64) AppleWebKit/537.36 (KHTML, like Gecko) Chrome/124.0.0.0 Safari/537.36" etag="Z1UFV3cbMemEahRHTVYM" version="24.4.2" type="device">
  <diagram id="l2aKFoh6-Bn0gOPZ2l0T" name="Page-1">
    <mxGraphModel dx="8205" dy="3067" grid="1" gridSize="10" guides="1" tooltips="1" connect="1" arrows="1" fold="1" page="1" pageScale="1" pageWidth="1169" pageHeight="827" math="0" shadow="0">
      <root>
        <mxCell id="0" />
        <mxCell id="1" parent="0" />
        <mxCell id="mpq5AgpwV83IM184FDqD-16" value="" style="shape=image;verticalLabelPosition=bottom;verticalAlign=top;imageAspect=0;image=https://jgraph.github.io/drawio-libs/libs/arista/DCS-7308.svg;html=1;verticalLabelPosition=bottom;labelBackgroundColor=#ffffff;verticalAlign=top;outlineConnect=0;container=1;collapsible=0;childLayout=rack;rackUnitSize=16.7;allowGaps=1;marginLeft=8;marginRight=8;marginTop=27;marginBottom=22;textColor=#666666;" parent="1" vertex="1">
          <mxGeometry x="320" y="296" width="200" height="254" as="geometry" />
        </mxCell>
        <mxCell id="ZKw4mWWBX_EVSmetP4t9-39" value="" style="fontColor=#0066CC;verticalAlign=top;verticalLabelPosition=bottom;labelPosition=center;align=center;html=1;outlineConnect=0;fillColor=#CCCCCC;strokeColor=#6881B3;gradientColor=none;gradientDirection=north;strokeWidth=2;shape=mxgraph.networks.modem;" parent="mpq5AgpwV83IM184FDqD-16" vertex="1">
          <mxGeometry x="8" y="27" width="184" height="33.4" as="geometry" />
        </mxCell>
        <mxCell id="ZKw4mWWBX_EVSmetP4t9-41" value="" style="strokeColor=#dddddd;shadow=1;strokeWidth=1;rounded=1;absoluteArcSize=1;arcSize=2;fillColor=#000000;" parent="mpq5AgpwV83IM184FDqD-16" vertex="1">
          <mxGeometry x="8" y="77.1" width="184" height="50.099999999999994" as="geometry" />
        </mxCell>
        <mxCell id="ZKw4mWWBX_EVSmetP4t9-42" value="&lt;div&gt;&lt;span style=&quot;background-color: initial;&quot;&gt;Firewall Rules&lt;/span&gt;&lt;br&gt;&lt;/div&gt;" style="editableCssRules=.*;html=1;fontColor=#999999;shape=image;verticalLabelPosition=middle;verticalAlign=middle;labelPosition=right;align=left;spacingLeft=20;part=1;points=[];imageAspect=0;image=data:image/svg+xml,PHN2ZyB4bWxucz0iaHR0cDovL3d3dy53My5vcmcvMjAwMC9zdmciIHhtbG5zOnY9Imh0dHBzOi8vdmVjdGEuaW8vbmFubyIgd2lkdGg9IjIwIiBoZWlnaHQ9IjIwIiBmaWxsPSIjNDI4NWY0IiB2aWV3Qm94PSIwIDAgMjAgMjAiPiYjeGE7CTxzdHlsZSB0eXBlPSJ0ZXh0L2NzcyI+JiN4YTsJLnN0MHtmaWxsOiM0Mjg1ZjQ7fSYjeGE7CTwvc3R5bGU+JiN4YTsJPHBhdGggY2xhc3M9InN0MCIgZD0iTTAgMGg4Ljg5djIuMjJIMHptMCAxNy43OGg4Ljg5VjIwSDB6bTAtOC44OWg4Ljg5djIuMjJIMHpNMTEuMTEgMEgyMHYyLjIyaC04Ljg5em0wIDE3Ljc4SDIwVjIwaC04Ljg5em0wLTguODlIMjB2Mi4yMmgtOC44OXpNNS41NSA0LjQ0aDguODl2Mi4yMkg1LjU1em0wIDguODloOC44OXYyLjIySDUuNTV6TTAgNC40NGgzLjMzdjIuMjJIMHptMCA4Ljg5aDMuMzN2Mi4yMkgwem0xNi42Ny04Ljg5SDIwdjIuMjJoLTMuMzN6bTAgOC44OUgyMHYyLjIyaC0zLjMzeiIvPiYjeGE7PC9zdmc+;" parent="ZKw4mWWBX_EVSmetP4t9-41" vertex="1">
          <mxGeometry width="30" height="30" relative="1" as="geometry">
            <mxPoint x="15" y="15" as="offset" />
          </mxGeometry>
        </mxCell>
        <mxCell id="ZKw4mWWBX_EVSmetP4t9-45" value="" style="strokeColor=#dddddd;shadow=1;strokeWidth=1;rounded=1;absoluteArcSize=1;arcSize=2;fillColor=#000000;" parent="mpq5AgpwV83IM184FDqD-16" vertex="1">
          <mxGeometry x="8" y="127.19999999999999" width="184" height="50.099999999999994" as="geometry" />
        </mxCell>
        <mxCell id="ZKw4mWWBX_EVSmetP4t9-46" value="Router" style="editableCssRules=.*;html=1;fontColor=#999999;shape=image;verticalLabelPosition=middle;verticalAlign=middle;labelPosition=right;align=left;spacingLeft=20;part=1;points=[];imageAspect=0;image=data:image/svg+xml,PHN2ZyB4bWxucz0iaHR0cDovL3d3dy53My5vcmcvMjAwMC9zdmciIHhtbG5zOnY9Imh0dHBzOi8vdmVjdGEuaW8vbmFubyIgd2lkdGg9IjIwIiBoZWlnaHQ9IjIwIiB2aWV3Qm94PSIwIDAgMjAgMjAiPiYjeGE7CTxzdHlsZSB0eXBlPSJ0ZXh0L2NzcyI+JiN4YTsJLnN0MHtmaWxsOiM0Mjg1ZjQ7fSYjeGE7CTwvc3R5bGU+JiN4YTsJPHBhdGggY2xhc3M9InN0MCIgZD0iTTE3IDEydjNsLTUtNSA1LTV2M2gzdjR6TTMgOEgwdjRoM3YzbDUtNS01LTV6bTkgN3YtM0g4djNINWw1IDUgNS01em0wLTEwdjNIOFY1SDVsNS01IDUgNXoiLz4mI3hhOzwvc3ZnPg==;" parent="ZKw4mWWBX_EVSmetP4t9-45" vertex="1">
          <mxGeometry width="30" height="30" relative="1" as="geometry">
            <mxPoint x="15" y="15" as="offset" />
          </mxGeometry>
        </mxCell>
        <mxCell id="ZKw4mWWBX_EVSmetP4t9-43" value="Switch 24" style="verticalLabelPosition=bottom;verticalAlign=top;html=1;shadow=0;dashed=0;strokeWidth=1;shape=mxgraph.android.switch_on;fillColor=#666666;sketch=0;fontColor=#FFFFFF;" parent="mpq5AgpwV83IM184FDqD-16" vertex="1">
          <mxGeometry x="8" y="177.29999999999998" width="184" height="16.7" as="geometry" />
        </mxCell>
        <mxCell id="ZKw4mWWBX_EVSmetP4t9-47" value="" style="strokeColor=#666666;html=1;labelPosition=right;align=left;spacingLeft=15;shadow=0;dashed=0;outlineConnect=0;shape=mxgraph.rack.general.cat5e_rack_mount_patch_panel_24_ports;" parent="mpq5AgpwV83IM184FDqD-16" vertex="1">
          <mxGeometry x="8" y="227.39999999999998" width="184" height="16.7" as="geometry" />
        </mxCell>
        <mxCell id="mpq5AgpwV83IM184FDqD-40" value="Protótipo Clínica" style="text;html=1;resizable=1;points=[];autosize=0;align=left;verticalAlign=top;spacingTop=-4;fontSize=20;fontStyle=1" parent="1" vertex="1">
          <mxGeometry x="40" y="40" width="580" height="30" as="geometry" />
        </mxCell>
        <mxCell id="ZKw4mWWBX_EVSmetP4t9-1" value="" style="whiteSpace=wrap;html=1;aspect=fixed;" parent="1" vertex="1">
          <mxGeometry x="-1270" width="1260" height="1260" as="geometry" />
        </mxCell>
        <mxCell id="ZKw4mWWBX_EVSmetP4t9-2" value="" style="whiteSpace=wrap;html=1;aspect=fixed;" parent="1" vertex="1">
          <mxGeometry x="-1270" y="990" width="270" height="270" as="geometry" />
        </mxCell>
        <mxCell id="ZKw4mWWBX_EVSmetP4t9-3" value="" style="whiteSpace=wrap;html=1;aspect=fixed;" parent="1" vertex="1">
          <mxGeometry x="-730" y="990" width="270" height="270" as="geometry" />
        </mxCell>
        <mxCell id="ZKw4mWWBX_EVSmetP4t9-4" value="" style="whiteSpace=wrap;html=1;aspect=fixed;" parent="1" vertex="1">
          <mxGeometry x="-1000" y="990" width="270" height="270" as="geometry" />
        </mxCell>
        <mxCell id="ZKw4mWWBX_EVSmetP4t9-5" value="" style="whiteSpace=wrap;html=1;" parent="1" vertex="1">
          <mxGeometry x="-460" y="990" width="450" height="270" as="geometry" />
        </mxCell>
        <mxCell id="ZKw4mWWBX_EVSmetP4t9-6" value="" style="whiteSpace=wrap;html=1;aspect=fixed;" parent="1" vertex="1">
          <mxGeometry x="-1270" y="495" width="270" height="270" as="geometry" />
        </mxCell>
        <mxCell id="ZKw4mWWBX_EVSmetP4t9-7" value="" style="whiteSpace=wrap;html=1;aspect=fixed;" parent="1" vertex="1">
          <mxGeometry x="-1000" y="495" width="270" height="270" as="geometry" />
        </mxCell>
        <mxCell id="ZKw4mWWBX_EVSmetP4t9-8" value="" style="whiteSpace=wrap;html=1;aspect=fixed;" parent="1" vertex="1">
          <mxGeometry x="-730" y="495" width="270" height="270" as="geometry" />
        </mxCell>
        <mxCell id="ZKw4mWWBX_EVSmetP4t9-9" value="" style="whiteSpace=wrap;html=1;aspect=fixed;" parent="1" vertex="1">
          <mxGeometry x="-460" y="495" width="270" height="270" as="geometry" />
        </mxCell>
        <mxCell id="ZKw4mWWBX_EVSmetP4t9-10" value="" style="whiteSpace=wrap;html=1;aspect=fixed;" parent="1" vertex="1">
          <mxGeometry x="-460" y="495" width="110" height="110" as="geometry" />
        </mxCell>
        <mxCell id="ZKw4mWWBX_EVSmetP4t9-11" value="" style="whiteSpace=wrap;html=1;" parent="1" vertex="1">
          <mxGeometry x="-790" width="270" height="140" as="geometry" />
        </mxCell>
        <mxCell id="ZKw4mWWBX_EVSmetP4t9-12" value="" style="whiteSpace=wrap;html=1;" parent="1" vertex="1">
          <mxGeometry x="-520" width="270" height="140" as="geometry" />
        </mxCell>
        <mxCell id="ZKw4mWWBX_EVSmetP4t9-13" value="" style="whiteSpace=wrap;html=1;aspect=fixed;" parent="1" vertex="1">
          <mxGeometry x="-460" y="1180" width="80" height="80" as="geometry" />
        </mxCell>
        <mxCell id="ZKw4mWWBX_EVSmetP4t9-14" value="" style="whiteSpace=wrap;html=1;aspect=fixed;" parent="1" vertex="1">
          <mxGeometry x="-380" y="1180" width="80" height="80" as="geometry" />
        </mxCell>
        <mxCell id="ZKw4mWWBX_EVSmetP4t9-15" value="" style="whiteSpace=wrap;html=1;aspect=fixed;" parent="1" vertex="1">
          <mxGeometry x="-60" y="990" width="50" height="50" as="geometry" />
        </mxCell>
        <mxCell id="ZKw4mWWBX_EVSmetP4t9-16" value="" style="whiteSpace=wrap;html=1;aspect=fixed;" parent="1" vertex="1">
          <mxGeometry x="-730" y="1180" width="80" height="80" as="geometry" />
        </mxCell>
        <mxCell id="ZKw4mWWBX_EVSmetP4t9-17" value="" style="whiteSpace=wrap;html=1;aspect=fixed;" parent="1" vertex="1">
          <mxGeometry x="-1000" y="1180" width="80" height="80" as="geometry" />
        </mxCell>
        <mxCell id="ZKw4mWWBX_EVSmetP4t9-18" value="" style="whiteSpace=wrap;html=1;aspect=fixed;" parent="1" vertex="1">
          <mxGeometry x="-1270" y="1180" width="80" height="80" as="geometry" />
        </mxCell>
        <mxCell id="ZKw4mWWBX_EVSmetP4t9-19" value="" style="whiteSpace=wrap;html=1;aspect=fixed;" parent="1" vertex="1">
          <mxGeometry x="-1270" y="685" width="80" height="80" as="geometry" />
        </mxCell>
        <mxCell id="ZKw4mWWBX_EVSmetP4t9-20" value="" style="whiteSpace=wrap;html=1;aspect=fixed;" parent="1" vertex="1">
          <mxGeometry x="-1000" y="690" width="80" height="80" as="geometry" />
        </mxCell>
        <mxCell id="ZKw4mWWBX_EVSmetP4t9-21" value="" style="whiteSpace=wrap;html=1;aspect=fixed;" parent="1" vertex="1">
          <mxGeometry x="-730" y="685" width="80" height="80" as="geometry" />
        </mxCell>
        <mxCell id="ZKw4mWWBX_EVSmetP4t9-22" value="" style="whiteSpace=wrap;html=1;aspect=fixed;" parent="1" vertex="1">
          <mxGeometry x="-790" width="80" height="80" as="geometry" />
        </mxCell>
        <mxCell id="ZKw4mWWBX_EVSmetP4t9-23" value="" style="whiteSpace=wrap;html=1;aspect=fixed;" parent="1" vertex="1">
          <mxGeometry x="-720" width="80" height="80" as="geometry" />
        </mxCell>
        <mxCell id="ZKw4mWWBX_EVSmetP4t9-24" value="" style="whiteSpace=wrap;html=1;aspect=fixed;" parent="1" vertex="1">
          <mxGeometry x="-520" y="60" width="80" height="80" as="geometry" />
        </mxCell>
        <mxCell id="ZKw4mWWBX_EVSmetP4t9-26" value="" style="verticalLabelPosition=bottom;sketch=0;aspect=fixed;html=1;verticalAlign=top;strokeColor=none;align=center;outlineConnect=0;shape=mxgraph.citrix.printer;" parent="1" vertex="1">
          <mxGeometry x="-60" y="990" width="50" height="50" as="geometry" />
        </mxCell>
        <mxCell id="ZKw4mWWBX_EVSmetP4t9-28" value="" style="image;aspect=fixed;html=1;points=[];align=center;fontSize=12;image=img/lib/azure2/management_governance/Managed_Desktop.svg;" parent="1" vertex="1">
          <mxGeometry x="-368" y="1188.4" width="68" height="63.2" as="geometry" />
        </mxCell>
        <mxCell id="ZKw4mWWBX_EVSmetP4t9-29" value="" style="image;aspect=fixed;html=1;points=[];align=center;fontSize=12;image=img/lib/azure2/management_governance/Managed_Desktop.svg;" parent="1" vertex="1">
          <mxGeometry x="-448" y="1188.4" width="68" height="63.2" as="geometry" />
        </mxCell>
        <mxCell id="ZKw4mWWBX_EVSmetP4t9-30" value="" style="image;aspect=fixed;html=1;points=[];align=center;fontSize=12;image=img/lib/azure2/management_governance/Managed_Desktop.svg;" parent="1" vertex="1">
          <mxGeometry x="-788" y="8.399999999999977" width="68" height="63.2" as="geometry" />
        </mxCell>
        <mxCell id="ZKw4mWWBX_EVSmetP4t9-32" value="" style="image;aspect=fixed;html=1;points=[];align=center;fontSize=12;image=img/lib/azure2/management_governance/Managed_Desktop.svg;" parent="1" vertex="1">
          <mxGeometry x="-720" y="8.399999999999977" width="68" height="63.2" as="geometry" />
        </mxCell>
        <mxCell id="ZKw4mWWBX_EVSmetP4t9-33" value="" style="image;sketch=0;aspect=fixed;html=1;points=[];align=center;fontSize=12;image=img/lib/mscae/Managed_Desktop.svg;" parent="1" vertex="1">
          <mxGeometry x="-1260" y="717.6" width="50" height="36" as="geometry" />
        </mxCell>
        <mxCell id="ZKw4mWWBX_EVSmetP4t9-34" value="" style="image;sketch=0;aspect=fixed;html=1;points=[];align=center;fontSize=12;image=img/lib/mscae/Managed_Desktop.svg;" parent="1" vertex="1">
          <mxGeometry x="-985" y="1210" width="50" height="36" as="geometry" />
        </mxCell>
        <mxCell id="ZKw4mWWBX_EVSmetP4t9-35" value="" style="image;sketch=0;aspect=fixed;html=1;points=[];align=center;fontSize=12;image=img/lib/mscae/Managed_Desktop.svg;" parent="1" vertex="1">
          <mxGeometry x="-1255" y="1190" width="50" height="36" as="geometry" />
        </mxCell>
        <mxCell id="ZKw4mWWBX_EVSmetP4t9-36" value="" style="image;sketch=0;aspect=fixed;html=1;points=[];align=center;fontSize=12;image=img/lib/mscae/Managed_Desktop.svg;" parent="1" vertex="1">
          <mxGeometry x="-985" y="707" width="50" height="36" as="geometry" />
        </mxCell>
        <mxCell id="ZKw4mWWBX_EVSmetP4t9-37" value="" style="image;sketch=0;aspect=fixed;html=1;points=[];align=center;fontSize=12;image=img/lib/mscae/Managed_Desktop.svg;" parent="1" vertex="1">
          <mxGeometry x="-715" y="703.2" width="50" height="36" as="geometry" />
        </mxCell>
        <mxCell id="ZKw4mWWBX_EVSmetP4t9-38" value="" style="image;sketch=0;aspect=fixed;html=1;points=[];align=center;fontSize=12;image=img/lib/mscae/Managed_Desktop.svg;" parent="1" vertex="1">
          <mxGeometry x="-510" y="82" width="50" height="36" as="geometry" />
        </mxCell>
        <mxCell id="ZKw4mWWBX_EVSmetP4t9-40" value="" style="image;sketch=0;aspect=fixed;html=1;points=[];align=center;fontSize=12;image=img/lib/mscae/Managed_Desktop.svg;" parent="1" vertex="1">
          <mxGeometry x="-710" y="1200" width="50" height="36" as="geometry" />
        </mxCell>
        <mxCell id="ZKw4mWWBX_EVSmetP4t9-49" value="&lt;font style=&quot;&quot;&gt;24 Patch Cords&lt;/font&gt;" style="text;html=1;align=center;verticalAlign=middle;resizable=0;points=[];autosize=1;strokeColor=none;fillColor=none;fontColor=#000000;labelBackgroundColor=none;" parent="1" vertex="1">
          <mxGeometry x="40" y="82" width="110" height="30" as="geometry" />
        </mxCell>
        <mxCell id="ZKw4mWWBX_EVSmetP4t9-50" value="&lt;font style=&quot;&quot;&gt;&amp;nbsp;12 Conexões (Fêmea)&lt;/font&gt;" style="text;html=1;align=center;verticalAlign=middle;resizable=0;points=[];autosize=1;strokeColor=none;fillColor=none;fontColor=#000000;labelBackgroundColor=none;" parent="1" vertex="1">
          <mxGeometry x="20" y="112" width="150" height="30" as="geometry" />
        </mxCell>
        <mxCell id="ZKw4mWWBX_EVSmetP4t9-51" value="&lt;font style=&quot;&quot;&gt;1 Caixa (Cat 100m)&lt;/font&gt;" style="text;html=1;align=center;verticalAlign=middle;resizable=0;points=[];autosize=1;strokeColor=none;fillColor=none;fontColor=#000000;labelBackgroundColor=none;" parent="1" vertex="1">
          <mxGeometry x="30" y="140" width="130" height="30" as="geometry" />
        </mxCell>
      </root>
    </mxGraphModel>
  </diagram>
</mxfile>
